Normalized EMG Linear Envelopes
nRows=259
nColumns=4

endheader
time	 med_gas_r	  soleus_r	 tib_ant_r	
3.22681	  0.009631	  0.011094	  0.009708	
3.26008	  0.009529	  0.010996	  0.008579	
3.29335	  0.009454	  0.010927	  0.007499	
3.32661	  0.009430	  0.010892	  0.006530	
3.35988	  0.009471	  0.010885	  0.005745	
3.39315	  0.009577	  0.010901	  0.005184	
3.42641	  0.009722	  0.010928	  0.004834	
3.45968	  0.009867	  0.010942	  0.004649	
3.49294	  0.009983	  0.010909	  0.004568	
3.52621	  0.010054	  0.010796	  0.004540	
3.55948	  0.010085	  0.010594	  0.004533	
3.59274	  0.010079	  0.010330	  0.004525	
3.62601	  0.010042	  0.010056	  0.004505	
3.65927	  0.009979	  0.009824	  0.004466	
3.69254	  0.009908	  0.009663	  0.004407	
3.72581	  0.009843	  0.009575	  0.004334	
3.75907	  0.009782	  0.009544	  0.004256	
3.79234	  0.009701	  0.009547	  0.004184	
3.8256	  0.009569	  0.009568	  0.004131	
3.85887	  0.009381	  0.009596	  0.004106	
3.89214	  0.009166	  0.009627	  0.004126	
3.9254	  0.008976	  0.009657	  0.004220	
3.95867	  0.008864	  0.009682	  0.004429	
3.99194	  0.008861	  0.009705	  0.004798	
4.0252	  0.008976	  0.009727	  0.005348	
4.05847	  0.009197	  0.009747	  0.006048	
4.09173	  0.009480	  0.009754	  0.006793	
4.125	  0.009743	  0.009740	  0.007425	
4.15827	  0.009887	  0.009703	  0.007787	
4.19153	  0.009833	  0.009655	  0.007799	
4.2248	  0.009570	  0.009618	  0.007482	
4.25806	  0.009166	  0.009607	  0.006942	
4.29133	  0.008734	  0.009634	  0.006305	
4.3246	  0.008378	  0.009700	  0.005673	
4.35786	  0.008154	  0.009798	  0.005113	
4.39113	  0.008069	  0.009917	  0.004660	
4.4244	  0.008104	  0.010034	  0.004338	
4.45766	  0.008233	  0.010126	  0.004164	
4.49093	  0.008421	  0.010179	  0.004155	
4.52419	  0.008632	  0.010197	  0.004320	
4.55746	  0.008828	  0.010201	  0.004663	
4.59073	  0.008990	  0.010209	  0.005168	
4.62399	  0.009117	  0.010229	  0.005794	
4.65726	  0.009208	  0.010259	  0.006469	
4.69052	  0.009246	  0.010304	  0.007108	
4.72379	  0.009205	  0.010375	  0.007635	
4.75706	  0.009087	  0.010484	  0.007985	
4.79032	  0.008939	  0.010628	  0.008101	
4.82359	  0.008841	  0.010784	  0.007939	
4.85685	  0.008860	  0.010920	  0.007493	
4.89012	  0.009009	  0.011009	  0.006827	
4.92339	  0.009246	  0.011043	  0.006070	
4.95665	  0.009510	  0.011030	  0.005363	
4.98992	  0.009756	  0.010985	  0.004809	
5.02319	  0.009967	  0.010922	  0.004443	
5.05645	  0.010147	  0.010859	  0.004264	
5.08972	  0.010297	  0.010813	  0.004256	
5.12298	  0.010415	  0.010802	  0.004411	
5.15625	  0.010502	  0.010832	  0.004721	
5.18952	  0.010567	  0.010899	  0.005166	
5.22278	  0.010618	  0.010990	  0.005712	
5.25605	  0.010657	  0.011088	  0.006308	
5.28931	  0.010679	  0.011178	  0.006874	
5.32258	  0.010669	  0.011238	  0.007292	
5.35585	  0.010614	  0.011239	  0.007417	
5.38911	  0.010500	  0.011151	  0.007127	
5.42238	  0.010315	  0.010961	  0.006365	
5.45565	  0.010049	  0.010678	  0.005184	
5.48891	  0.009701	  0.010342	  0.003738	
5.52218	  0.009288	  0.010006	  0.002290	
5.55544	  0.008848	  0.009719	  0.001217	
5.58871	  0.008428	  0.009510	  0.001034	
5.62198	  0.008075	  0.009387	  0.002414	
5.65524	  0.007827	  0.009344	  0.006186	
5.68851	  0.007726	  0.009377	  0.013289	
5.72177	  0.007825	  0.009501	  0.024667	
5.75504	  0.008197	  0.009753	  0.041049	
5.78831	  0.008932	  0.010195	  0.062620	
5.82157	  0.010135	  0.010899	  0.088722	
5.85484	  0.011904	  0.011941	  0.117839	
5.8881	  0.014319	  0.013386	  0.148071	
5.92137	  0.017417	  0.015285	  0.177966	
5.95464	  0.021171	  0.017677	  0.207155	
5.9879	  0.025482	  0.020578	  0.236192	
6.02117	  0.030180	  0.023952	  0.265589	
6.05444	  0.035045	  0.027693	  0.294833	
6.0877	  0.039820	  0.031652	  0.322365	
6.12097	  0.044256	  0.035728	  0.346642	
6.15423	  0.048164	  0.039958	  0.367234	
6.1875	  0.051500	  0.044539	  0.384817	
6.22077	  0.054411	  0.049756	  0.400137	
6.25403	  0.057202	  0.055836	  0.413195	
6.2873	  0.060194	  0.062782	  0.423683	
6.32056	  0.063551	  0.070284	  0.432327	
6.35383	  0.067207	  0.077782	  0.441763	
6.3871	  0.070929	  0.084682	  0.455962	
6.42036	  0.074445	  0.090577	  0.478350	
6.45363	  0.077488	  0.095262	  0.509836	
6.4869	  0.079752	  0.098560	  0.548104	
6.52016	  0.080922	  0.100214	  0.588868	
6.55343	  0.080836	  0.100071	  0.628290	
6.58669	  0.079669	  0.098392	  0.664716	
6.61996	  0.077924	  0.095899	  0.698329	
6.65323	  0.076197	  0.093416	  0.729215	
6.68649	  0.074938	  0.091429	  0.755759	
6.71976	  0.074383	  0.089982	  0.774964	
6.75302	  0.074620	  0.088898	  0.784456	
6.78629	  0.075643	  0.088024	  0.784513	
6.81956	  0.077330	  0.087271	  0.778414	
6.85282	  0.079431	  0.086558	  0.770769	
6.88609	  0.081651	  0.085812	  0.765066	
6.91935	  0.083752	  0.085033	  0.762218	
6.95262	  0.085581	  0.084309	  0.760918	
6.98589	  0.087029	  0.083762	  0.759150	
7.01915	  0.088039	  0.083503	  0.755566	
7.05242	  0.088673	  0.083650	  0.750086	
7.08569	  0.089164	  0.084323	  0.743855	
7.11895	  0.089859	  0.085564	  0.738794	
7.15222	  0.091058	  0.087262	  0.736692	
7.18548	  0.092857	  0.089162	  0.738016	
7.21875	  0.095066	  0.090955	  0.741286	
7.25202	  0.097251	  0.092383	  0.743749	
7.28528	  0.098939	  0.093318	  0.743130	
7.31855	  0.099854	  0.093828	  0.739068	
7.35181	  0.100040	  0.094177	  0.733044	
7.38508	  0.099751	  0.094717	  0.726942	
7.41835	  0.099235	  0.095722	  0.721720	
7.45161	  0.098592	  0.097295	  0.717295	
7.48488	  0.097778	  0.099382	  0.713279	
7.51815	  0.096661	  0.101786	  0.709216	
7.55141	  0.095035	  0.104097	  0.703966	
7.58468	  0.092663	  0.105638	  0.695416	
7.61794	  0.089446	  0.105627	  0.681710	
7.65121	  0.085649	  0.103553	  0.663360	
7.68448	  0.081947	  0.099538	  0.644234	
7.71774	  0.079161	  0.094370	  0.630163	
7.75101	  0.077833	  0.089139	  0.625969	
7.78427	  0.077971	  0.084754	  0.632846	
7.81754	  0.079154	  0.081666	  0.647428	
7.85081	  0.080871	  0.079937	  0.662803	
7.88407	  0.082793	  0.079496	  0.671020	
7.91734	  0.084807	  0.080305	  0.666269	
7.9506	  0.086879	  0.082346	  0.647428	
7.98387	  0.088930	  0.085478	  0.618506	
8.01714	  0.090836	  0.089346	  0.586599	
8.0504	  0.092484	  0.093409	  0.558709	
8.08367	  0.093782	  0.097070	  0.539413	
8.11694	  0.094577	  0.099785	  0.530310	
8.1502	  0.094600	  0.101141	  0.530729	
8.18347	  0.093571	  0.100936	  0.538793	
8.21673	  0.091423	  0.099291	  0.552379	
8.25	  0.088439	  0.096684	  0.569754	
8.28327	  0.085139	  0.093793	  0.589556	
8.31653	  0.081996	  0.091199	  0.610094	
8.3498	  0.079264	  0.089149	  0.628723	
8.38306	  0.077006	  0.087549	  0.642302	
8.41633	  0.075250	  0.086157	  0.648819	
8.4496	  0.074090	  0.084837	  0.648797	
8.48286	  0.073690	  0.083717	  0.645052	
8.51613	  0.074201	  0.083142	  0.640909	
8.5494	  0.075669	  0.083432	  0.638462	
8.58266	  0.077932	  0.084589	  0.638230	
8.61593	  0.080598	  0.086191	  0.640129	
8.64919	  0.083143	  0.087586	  0.644600	
8.68246	  0.085111	  0.088259	  0.652783	
8.71573	  0.086293	  0.088103	  0.665556	
8.74899	  0.086765	  0.087380	  0.682229	
8.78226	  0.086766	  0.086477	  0.700021	
8.81552	  0.086536	  0.085650	  0.714840	
8.84879	  0.086209	  0.084960	  0.722933	
8.88206	  0.085778	  0.084340	  0.722374	
8.91532	  0.085097	  0.083688	  0.713616	
8.94859	  0.083922	  0.082899	  0.698973	
8.98185	  0.082036	  0.081872	  0.681493	
9.01512	  0.079418	  0.080560	  0.663851	
9.04839	  0.076340	  0.079028	  0.647820	
9.08165	  0.073279	  0.077461	  0.634268	
9.11492	  0.070715	  0.076093	  0.623202	
9.14819	  0.068967	  0.075104	  0.613550	
9.18145	  0.068142	  0.074550	  0.603152	
9.21472	  0.068179	  0.074360	  0.589716	
9.24798	  0.068890	  0.074385	  0.572586	
9.28125	  0.070026	  0.074502	  0.553895	
9.31452	  0.071381	  0.074738	  0.537741	
9.34778	  0.072883	  0.075309	  0.527688	
9.38105	  0.074556	  0.076478	  0.524494	
9.41431	  0.076328	  0.078300	  0.525798	
9.44758	  0.077882	  0.080446	  0.527826	
9.48085	  0.078727	  0.082307	  0.527698	
9.51411	  0.078500	  0.083321	  0.524852	
9.54738	  0.077250	  0.083274	  0.520946	
9.58065	  0.075459	  0.082330	  0.518478	
9.61391	  0.073763	  0.080802	  0.518841	
9.64718	  0.072606	  0.078910	  0.521013	
9.68044	  0.072095	  0.076768	  0.521950	
9.71371	  0.072082	  0.074531	  0.518679	
9.74698	  0.072319	  0.072486	  0.510663	
9.78024	  0.072508	  0.070943	  0.500576	
9.81351	  0.072295	  0.070028	  0.492865	
9.84677	  0.071347	  0.069605	  0.491169	
9.88004	  0.069551	  0.069408	  0.496393	
9.91331	  0.067156	  0.069256	  0.506594	
9.94657	  0.064695	  0.069167	  0.518451	
9.97984	  0.062721	  0.069274	  0.529053	
10.0131	  0.061543	  0.069668	  0.536791	
10.0464	  0.061136	  0.070297	  0.541174	
10.0796	  0.061254	  0.070998	  0.542313	
10.1129	  0.061628	  0.071600	  0.540759	
10.1462	  0.062118	  0.072002	  0.537615	
10.1794	  0.062725	  0.072176	  0.534463	
10.2127	  0.063518	  0.072137	  0.533007	
10.246	  0.064540	  0.071920	  0.534624	
10.2792	  0.065765	  0.071566	  0.539974	
10.3125	  0.067088	  0.071096	  0.548778	
10.3458	  0.068344	  0.070475	  0.560089	
10.379	  0.069343	  0.069630	  0.573159	
10.4123	  0.069907	  0.068512	  0.588190	
10.4456	  0.069914	  0.067137	  0.606031	
10.4788	  0.069360	  0.065591	  0.626845	
10.5121	  0.068418	  0.064019	  0.648908	
10.5454	  0.067421	  0.062627	  0.668620	
10.5786	  0.066722	  0.061676	  0.681807	
10.6119	  0.066509	  0.061437	  0.685574	
10.6452	  0.066770	  0.062141	  0.679745	
10.6784	  0.067449	  0.063949	  0.667002	
10.7117	  0.068584	  0.066857	  0.651428	
10.745	  0.070211	  0.070538	  0.636204	
10.7782	  0.072107	  0.074202	  0.622008	
10.8115	  0.073657	  0.076725	  0.607264	
10.8448	  0.074089	  0.077099	  0.589955	
10.878	  0.072926	  0.074982	  0.569613	
10.9113	  0.070287	  0.070924	  0.548099	
10.9446	  0.066808	  0.066102	  0.528844	
10.9778	  0.063295	  0.061736	  0.515133	
11.0111	  0.060374	  0.058602	  0.508376	
11.0444	  0.058342	  0.056863	  0.507215	
11.0776	  0.057180	  0.056214	  0.508036	
11.1109	  0.056653	  0.056139	  0.506762	
11.1442	  0.056436	  0.056137	  0.500953	
11.1774	  0.056224	  0.055858	  0.490846	
11.2107	  0.055810	  0.055138	  0.478690	
11.244	  0.055098	  0.053947	  0.467011	
11.2772	  0.054048	  0.052311	  0.457100	
11.3105	  0.052644	  0.050289	  0.448501	
11.3437	  0.050894	  0.048011	  0.439406	
11.377	  0.048875	  0.045705	  0.427592	
11.4103	  0.046741	  0.043632	  0.411494	
11.4435	  0.044675	  0.041935	  0.390959	
11.4768	  0.042790	  0.040523	  0.367239	
11.5101	  0.041069	  0.039125	  0.342261	
11.5433	  0.039404	  0.037461	  0.317760	
11.5766	  0.037700	  0.035423	  0.294890	
11.6099	  0.035954	  0.033091	  0.274287	
11.6431	  0.034217	  0.030616	  0.256196	
11.6764	  0.032513	  0.028093	  0.240436	
11.7097	  0.030805	  0.025543	  0.226392	
11.7429	  0.029046	  0.022976	  0.213291	
11.7762	  0.027249	  0.020447	  0.200678	
11.8095	  0.025494	  0.018052	  0.188704	
